<?xml version="1.0" encoding="utf-8"?>
<!-- Generator: Adobe Illustrator 28.0.0, SVG Export Plug-In . SVG Version: 6.00 Build 0)  -->
<svg version="1.1" id="Layer_1" xmlns="http://www.w3.org/2000/svg" xmlns:xlink="http://www.w3.org/1999/xlink" x="0px" y="0px"
	 viewBox="0 0 124 130" style="enable-background:new 0 0 124 130;" xml:space="preserve">
<style type="text/css">
	.st0{fill:none;stroke:#264398;stroke-width:3;stroke-linecap:round;stroke-linejoin:round;stroke-miterlimit:10;}
</style>
<g>
	<path id="svg_1" class="st0" d="M35.2,96.8c0,0,0,0,8.6-2.7c5.7-1.9,17.3,1.1,24.3,3.2c3.2,1.1,6.8-0.8,7.8-4.1
		c1.1-3.5-0.8-7-4.3-7.8l-22.2-6.2c-9.7-2.7-20-0.8-28.1,5.4L2,99.5v27.6l24-7.8l29.5,3.2c5.4,0.5,10.8-0.8,15.4-3.8l48.6-34.9
		c2.4-1.6,3.2-4.6,1.6-7.3c-1.4-2.4-4.6-3.5-7.3-2.2L75,95.5"/>
	<path id="svg_2" class="st0" d="M71.7,85.5l20.8-11.6c4.6-2.7,10.3-3,15.4-1.4l5.9,1.9"/>
	<path id="svg_3" class="st0" d="M58.5,81.7l16.8-9.2c5.1-3,11.3-3.8,17-2.4l5.4,1.4"/>
	<path id="svg_4" class="st0" d="M57.7,69c18.5,0,33.5-15,33.5-33.5S76.2,2,57.7,2S24.2,17,24.2,35.5S39.2,69,57.7,69z"/>
	<path id="svg_5" class="st0" d="M57.7,2c-0.5,0-1.4,0-1.9,0c0.5,4.9,2.4,9.5,5.1,13c0,0-3.8,6.5,2.7,12.7s10.3-0.3,14.9,4.1
		c4.3,4.3,12.7,3.8,12.7,3.8C91.2,16.9,76.3,2,57.7,2z"/>
	<path id="svg_6" class="st0" d="M25.5,44.7c0,0,8.1-3.5,11.9,0c3.8,3.5,30,2.2,26.7,23.2"/>
	<path id="svg_7" class="st0" d="M80.6,47.1c-0.5-2.7-2.7-4.9-5.4-5.1c-1.4-0.3-2.4,0-3,1.4c-1.4,2.7,2.2,5.9,0,8.4
		C70,54.2,74.9,58,79,53.7C80.9,51.2,81.2,49,80.6,47.1z"/>
	<path id="svg_8" class="st0" d="M25.5,27.4c4.1,8.1,12.7,3.8,20.5,2.7c7.8-1.1,3-5.4,1.6-11.3s-9.2-1.9-9.2-1.9s4.1-5.1,2.2-10"/>
</g>
</svg>
