<?xml version="1.0" encoding="utf-8"?>
<!-- Generator: Adobe Illustrator 28.0.0, SVG Export Plug-In . SVG Version: 6.00 Build 0)  -->
<svg version="1.1" id="Layer_1" xmlns="http://www.w3.org/2000/svg" xmlns:xlink="http://www.w3.org/1999/xlink" x="0px" y="0px"
	 viewBox="0 0 123 94" style="enable-background:new 0 0 123 94;" xml:space="preserve">
<style type="text/css">
	.st0{fill:none;stroke:#264398;stroke-width:2;stroke-linecap:round;stroke-linejoin:round;stroke-miterlimit:10;}
</style>
<g>
	<path id="svg_1" class="st0" d="M94.2,57.6l5.7,5.7c2.3,2.3,2.3,5.9,0,8c-2.3,2.3-5.9,2.3-8,0L88,67.4"/>
	<path id="svg_2" class="st0" d="M86.2,65.6l9,9c2.3,2.3,2.3,5.9,0,8c-2.3,2.3-5.9,2.3-8,0l-9-9"/>
	<path id="svg_3" class="st0" d="M75.9,71.3l9.5,9.5c2.3,2.3,2.3,5.9,0,8c-2.3,2.3-5.9,2.3-8,0l-9.5-9.5"/>
	<path id="svg_4" class="st0" d="M65.6,77.2l5.4,5.4c2.3,2.3,2.1,5.9-0.3,8.2c-2.3,2.3-6.2,2.3-8.2,0.3L58.4,87"/>
	<path id="svg_5" class="st0" d="M66.1,29.6l28.1,28.1"/>
	<path id="svg_6" class="st0" d="M25.4,54L1.5,30.1l25.2-25l11.6,11.6c0,0,11.8-3.1,23.7,0.3"/>
	<path id="svg_7" class="st0" d="M60.7,76.4l0.3,0.3c2.1,2.1,2.1,5.7,0,7.7l-5.2,5.2c-2.1,2.1-5.7,2.1-7.7,0l-0.3-0.3
		c-2.1-2.1-2.1-5.7,0-7.7l5.2-5.2C55.1,74.4,58.4,74.4,60.7,76.4z"/>
	<path id="svg_8" class="st0" d="M53.5,66.1l0.3,0.3c2.1,2.1,2.1,5.7,0,7.7l-7.2,7.2c-2.1,2.1-5.7,2.1-7.7,0L38.6,81
		c-2.1-2.1-2.1-5.7,0-7.7l7.2-7.2C47.9,64.1,51.2,64.1,53.5,66.1z"/>
	<path id="svg_9" class="st0" d="M37.3,50.2l0.3,0.3c2.1,2.1,2.1,5.7,0,7.7l-7.2,7.2c-2.1,2.1-5.7,2.1-7.7,0l-0.3-0.3
		c-2.1-2.1-2.1-5.7,0-7.7l7.2-7.2C31.6,47.9,35.2,47.9,37.3,50.2z"/>
	<path id="svg_10" class="st0" d="M46.8,56.6l0.3,0.3c2.1,2.1,2.1,5.7,0,7.7l-10,10c-2.1,2.1-5.7,2.1-7.7,0l-0.3-0.3
		c-2.1-2.1-2.1-5.7,0-7.7l10-10C41.2,54.5,44.8,54.5,46.8,56.6z"/>
	<path id="svg_11" class="st0" d="M92.7,54l28.8-28.8L97.8,1.5L77.2,22.6c0,0-13.6-9.5-21.4-3.3c-3.6,2.8-7.5,5.2-10.3,7
		c-2.8,1.8-3.9,5.2-2.6,8.2c1.5,3.3,5.7,4.9,9,3.1l13.4-7"/>
</g>
</svg>
