<?xml version="1.0" encoding="UTF-8"?>
<svg id="Layer_2" data-name="Layer 2" xmlns="http://www.w3.org/2000/svg" xmlns:xlink="http://www.w3.org/1999/xlink" viewBox="0 0 169.9 44.28">
  <defs>
    <style>
      .cls-1 {
        fill: url(#linear-gradient);
      }

      .cls-1, .cls-2, .cls-3, .cls-4 {
        stroke-width: 0px;
      }

      .cls-2 {
        fill: #264398;
      }

      .cls-3 {
        fill: url(#linear-gradient-2);
      }

      .cls-4 {
        fill: #fdcc07;
      }
    </style>
    <linearGradient id="linear-gradient" x1=".76" y1="29.75" x2="25.48" y2="35.07" gradientUnits="userSpaceOnUse">
      <stop offset="0" stop-color="#1aaa5a"/>
      <stop offset=".97" stop-color="#7cc255"/>
    </linearGradient>
    <linearGradient id="linear-gradient-2" x1="-356.37" y1="29.95" x2="-331.65" y2="35.27" gradientTransform="translate(-305.41) rotate(-180) scale(1 -1)" xlink:href="#linear-gradient"/>
  </defs>
  <g id="Layer_1-2" data-name="Layer 1">
    <g>
      <g>
        <path class="cls-2" d="M95.44,37.03c-.94.54-1.81.94-2.63,1.2s-1.58.39-2.31.39c-.68,0-1.21-.12-1.6-.36s-.68-.62-.88-1.15c-.23-.61-.43-3.19-.6-7.75-.09-2.82-.18-5.12-.26-6.89-1.31,2.58-2.7,5.42-4.16,8.52s-2.32,4.87-2.58,5.3c-.29.47-.62.83-.98,1.07s-.74.37-1.14.37c-.43,0-.82-.1-1.16-.31s-.65-.52-.93-.96c-.27-.43-1.14-2.21-2.61-5.34s-2.88-6.01-4.23-8.65c-.11,1.97-.21,4.5-.3,7.59-.12,4.17-.32,6.57-.6,7.19-.21.48-.5.82-.86,1.03s-.88.31-1.55.31c-.7,0-1.45-.13-2.24-.39s-1.64-.64-2.56-1.16c.93-2.11,1.62-4.73,2.08-7.85s.69-6.78.69-10.98c0-.79-.07-1.49-.2-2.12s-.34-1.2-.62-1.73c.67-.55,1.34-.95,2.03-1.2s1.43-.38,2.22-.38c1.16,0,2.12.32,2.89.97s1.79,2.3,3.07,4.97c.4.8.93,1.89,1.58,3.29,2.04,4.23,3.18,6.35,3.43,6.35.28,0,1.21-1.69,2.79-5.06.91-1.92,1.66-3.49,2.25-4.69,1.17-2.4,2.15-3.97,2.94-4.71s1.73-1.11,2.83-1.11c.76,0,1.5.13,2.22.4s1.45.69,2.19,1.25c-.35.6-.61,1.37-.76,2.32s-.24,2.23-.24,3.83c0,3.3.24,6.37.71,9.18s1.16,5.24,2.07,7.27Z"/>
        <path class="cls-2" d="M98.48,13.2c1.29.04,2.36.06,3.23.08s1.52.03,1.98.03c1.32,0,2.94-.06,4.84-.19s3.16-.19,3.77-.19c1.1,0,1.89.18,2.36.53s.7.93.7,1.74c0,.48-.08.98-.25,1.51s-.41,1.09-.74,1.69c-.61-.29-1.33-.5-2.16-.63s-1.93-.19-3.3-.19c-.21,0-.62,0-1.21.03s-1.37.04-2.3.08l-.12,5.61c.23.02.5.04.78.04s.76,0,1.42,0c1.58,0,2.86-.04,3.84-.13s1.74-.23,2.28-.41c.2.43.35.85.44,1.25s.14.77.14,1.12c0,.86-.25,1.47-.76,1.85s-1.36.56-2.54.56h-.7c-1.71-.05-3.36-.06-4.96-.05-.02,1.29-.04,2.47-.06,3.55s-.03,2.03-.04,2.87c.63.05,1.23.08,1.78.1s1.08.03,1.56.03c1.24,0,2.31-.08,3.22-.23s1.67-.39,2.3-.7c.29.63.51,1.2.65,1.69s.21.95.21,1.37c0,.88-.28,1.49-.84,1.85s-1.63.53-3.2.53c-.53,0-1.3-.01-2.31-.04s-1.77-.04-2.26-.04-1.36.01-2.59.04-2.23.04-2.98.04-1.21-.13-1.49-.4-.42-.74-.42-1.42c0-.2.03-.74.09-1.62.23-3.64.35-7.14.35-10.49,0-2.8-.06-5.12-.17-6.96s-.28-3.32-.5-4.45Z"/>
        <path class="cls-2" d="M142.11,34.19c-.35,1.52-.88,2.69-1.57,3.5s-1.53,1.21-2.49,1.21c-1.24,0-3.15-1.59-5.71-4.78-.45-.55-.79-.97-1.02-1.27-.98-1.23-1.79-2.06-2.41-2.49s-1.27-.64-1.95-.64c-.16,0-.36,0-.58.03s-.47.04-.74.08c.04,1.92.13,3.49.3,4.71s.41,2.19.74,2.9c-.86.39-1.66.67-2.42.86s-1.49.28-2.19.28c-1.17,0-1.99-.26-2.44-.77s-.69-1.44-.69-2.76c0-.46.07-1.96.21-4.5s.21-4.86.21-6.94c0-3.04-.08-5.32-.24-6.86s-.42-2.7-.8-3.49c.35,0,.7,0,1.05,0s.72,0,1.12,0c1.38,0,3.08-.06,5.08-.18s3.32-.18,3.96-.18c2.77,0,4.92.61,6.48,1.84s2.33,2.93,2.33,5.11c0,1.84-.46,3.41-1.39,4.7s-2.3,2.28-4.11,2.96c1.31.41,2.63,1.32,3.96,2.72l.33.33c1.15,1.18,2.09,2.03,2.81,2.54s1.45.86,2.18,1.06ZM125.55,25.73h.62c1.73,0,3.1-.41,4.1-1.23s1.49-1.93,1.49-3.34c0-1.1-.35-1.95-1.06-2.56s-1.71-.91-3.01-.91c-.27,0-.57.02-.89.05s-.66.09-1.01.16c-.08,1.37-.14,2.71-.18,4.01s-.05,2.57-.05,3.81Z"/>
        <path class="cls-2" d="M169.9,36.42h-.04c-.95.75-1.82,1.3-2.6,1.66s-1.51.54-2.18.54c-.97,0-1.77-.39-2.4-1.17s-1.43-2.6-2.4-5.46h-9.32c-.53,1.04-.92,1.94-1.17,2.7s-.38,1.4-.38,1.94c0,.18.02.35.05.52s.09.35.16.54c-.57.29-1.15.51-1.73.65s-1.17.21-1.77.21c-1.01,0-1.73-.18-2.15-.54s-.64-.96-.64-1.79c0-.93,1.16-3.66,3.47-8.21s4.23-8.6,5.74-12.16c-.2-.4-.38-.73-.54-1s-.33-.5-.49-.7c.75-.42,1.49-.74,2.21-.94s1.43-.31,2.14-.31c1.11,0,2.01.27,2.7.82s1.37,1.57,2.07,3.07c.28.61,1.05,2.5,2.31,5.68s2.47,6.01,3.63,8.51c.54,1.16,1.08,2.19,1.63,3.08s1.12,1.69,1.71,2.38ZM152.76,27.72h5.8c-.41-1.22-.85-2.45-1.31-3.68s-.95-2.49-1.47-3.77c-.54,1.25-1.06,2.5-1.56,3.74s-.99,2.48-1.46,3.71Z"/>
      </g>
      <g>
        <path class="cls-4" d="M20.48,23.36c2.63,2.06,4.33,4.63,5.42,7.25,1.1-2.55,2.77-5.04,5.34-7.05,4.13-3.73,10.12-3.94,14.71-3.37,0-.03,0-.06,0-.09C45.95,8.99,36.95,0,25.86,0S5.83,8.94,5.77,19.98c4.58-.57,10.58-.35,14.71,3.37Z"/>
        <g>
          <path class="cls-1" d="M3.3,26.51s9.59-.16,21.92,16.07c.25-3.83-.03-12.16-6.36-17.06-6.35-5.83-18.87-1.45-18.87-1.45,5.49,13.89,17.6,18.61,22.69,20.02-1.93-3.1-9.23-13.9-19.38-17.57Z"/>
          <path class="cls-3" d="M48.41,26.71s-9.59-.16-21.92,16.07c-.25-3.83.03-12.16,6.36-17.06,6.35-5.83,18.87-1.45,18.87-1.45-5.49,13.89-17.6,18.61-22.69,20.02,1.93-3.1,9.23-13.9,19.38-17.57Z"/>
        </g>
      </g>
    </g>
  </g>
</svg>