<?xml version="1.0" encoding="utf-8"?>
<!-- Generator: Adobe Illustrator 28.0.0, SVG Export Plug-In . SVG Version: 6.00 Build 0)  -->
<svg version="1.1" id="Layer_1" xmlns="http://www.w3.org/2000/svg" xmlns:xlink="http://www.w3.org/1999/xlink" x="0px" y="0px"
	 viewBox="0 0 124 119" style="enable-background:new 0 0 124 119;" xml:space="preserve">
<style type="text/css">
	.st0{fill:none;stroke:#264398;stroke-width:2;}
	.st1{fill:#FFFFFF;stroke:#264398;stroke-width:2;stroke-linecap:round;stroke-linejoin:round;stroke-miterlimit:10;}
	.st2{fill:#264398;stroke:#FFFFFF;stroke-width:3;stroke-linecap:round;stroke-linejoin:round;stroke-miterlimit:10;}
</style>
<g>
	<circle id="svg_1" class="st0" cx="62" cy="69" r="39"/>
	<path id="svg_2" class="st1" d="M60.7,50c13.3,0,24-10.7,24-24S74,2,60.7,2s-24,10.7-24,24S47.5,50,60.7,50z"/>
	<path id="svg_3" class="st2" d="M66.6,21.9c1.3-1.8,2-4.1,1.5-6.4c-0.5-2.6-2.8-4.9-5.4-5.4c-4.9-1-9.2,2.6-9.2,7.1
		c0,1.8,0.5,3.3,1.5,4.6c0.8,1,0.5,2.3-0.8,3.1c-3.8,2-6.6,5.6-7.4,10.2c-0.3,1.3,0.8,2.3,2,2.3h23.7c1.3,0,2-1,2-2.3
		C74,30.6,71.2,27,67.4,25C66.1,24.2,65.8,22.9,66.6,21.9z"/>
	<path id="svg_4" class="st1" d="M26,116.9c13.3,0,24-10.7,24-24s-10.7-24-24-24S2,79.6,2,92.9C2,106.1,12.7,116.9,26,116.9z"/>
	<path id="svg_5" class="st2" d="M31.9,89.1c1.3-1.8,2-4.1,1.5-6.4c-0.5-2.6-2.8-4.9-5.4-5.4c-4.9-1-9.2,2.6-9.2,7.1
		c0,1.8,0.5,3.3,1.5,4.6c0.8,1,0.5,2.3-0.8,3.1c-3.8,2-6.6,5.6-7.4,10.2c-0.3,1.3,0.8,2.3,2,2.3H38c1.3,0,2-1,2-2.3
		c-0.8-4.6-3.6-8.2-7.4-10.2C31.4,91.4,31.1,90.1,31.9,89.1z"/>
	<path id="svg_6" class="st1" d="M98,116.9c13.3,0,24-10.7,24-24s-10.7-24-24-24s-24,10.7-24,24C74,106.1,84.7,116.9,98,116.9z"/>
	<path id="svg_7" class="st2" d="M103.6,89.1c1.3-1.8,2-4.1,1.5-6.4c-0.5-2.6-2.8-4.9-5.4-5.4c-4.9-1-9.2,2.6-9.2,7.1
		c0,1.8,0.5,3.3,1.5,4.6c0.8,1,0.5,2.3-0.8,3.1c-3.8,2-6.6,5.6-7.4,10.2c-0.3,1.3,0.8,2.3,2,2.3h23.7c1.3,0,2-1,2-2.3
		c-0.8-4.6-3.6-8.2-7.4-10.2C103.4,91.4,102.9,90.1,103.6,89.1z"/>
</g>
</svg>
